HIERARCHY
ROOT Hips
{
	OFFSET 0.000000 0.000000 0.000000
	CHANNELS 6 Xposition Yposition Zposition Zrotation Yrotation Xrotation 
	JOINT LHipJoint
	{
		OFFSET 0.000000 0.000000 0.000000
		CHANNELS 3 Zrotation Yrotation Xrotation
		JOINT LeftUpLeg
		{
			OFFSET 1.363060 -1.794630 0.839290
			CHANNELS 3 Zrotation Yrotation Xrotation
			JOINT LeftLeg
			{
				OFFSET 2.448110 -6.726130 0.000000
				CHANNELS 3 Zrotation Yrotation Xrotation
				JOINT LeftFoot
				{
					OFFSET 2.562200 -7.039590 0.000000
					CHANNELS 3 Zrotation Yrotation Xrotation
					JOINT LeftToeBase
					{
						OFFSET 0.157640 -0.433110 2.322550
						CHANNELS 3 Zrotation Yrotation Xrotation
						End Site
						{
							OFFSET 0.000000 0.000000 0.000000
						}
					}
				}
			}
		}
	}
	JOINT RHipJoint
	{
		OFFSET 0.000000 0.000000 0.000000
		CHANNELS 3 Zrotation Yrotation Xrotation
		JOINT RightUpLeg
		{
			OFFSET -1.305520 -1.794630 0.839290
			CHANNELS 3 Zrotation Yrotation Xrotation
			JOINT RightLeg
			{
				OFFSET -2.542530 -6.985550 0.000000
				CHANNELS 3 Zrotation Yrotation Xrotation
				JOINT RightFoot
				{
					OFFSET -2.568260 -7.056230 0.000000
					CHANNELS 3 Zrotation Yrotation Xrotation
					JOINT RightToeBase
					{
						OFFSET -0.164730 -0.452590 2.363150
						CHANNELS 3 Zrotation Yrotation Xrotation
						End Site
						{
							OFFSET 0.000000 0.000000 0.000000
						}
					}
				}
			}
		}
	}
	JOINT LowerBack
	{
		OFFSET 0.000000 0.000000 0.000000
		CHANNELS 3 Zrotation Yrotation Xrotation
		JOINT Spine
		{
			OFFSET 0.028270 2.035590 -0.193380
			CHANNELS 3 Zrotation Yrotation Xrotation
			JOINT Spine1
			{
				OFFSET 0.056720 2.048850 -0.042750
				CHANNELS 3 Zrotation Yrotation Xrotation
				JOINT Neck
				{
					OFFSET 0.000000 0.000000 0.000000
					CHANNELS 3 Zrotation Yrotation Xrotation
					JOINT Neck1
					{
						OFFSET -0.054170 1.746240 0.172020
						CHANNELS 3 Zrotation Yrotation Xrotation
						JOINT Head
						{
							OFFSET 0.104070 1.761360 -0.123970
							CHANNELS 3 Zrotation Yrotation Xrotation
							End Site
							{
								OFFSET 0.000000 0.000000 0.000000
							}
						}
					}
				}
				JOINT LeftShoulder
				{
					OFFSET 0.000000 0.000000 0.000000
					CHANNELS 3 Zrotation Yrotation Xrotation
					JOINT LeftArm
					{
						OFFSET 3.362410 1.200890 -0.311210
						CHANNELS 3 Zrotation Yrotation Xrotation
						JOINT LeftForeArm
						{
							OFFSET 4.983000 -0.000000 -0.000000
							CHANNELS 3 Zrotation Yrotation Xrotation
							JOINT LeftHand
							{
								OFFSET 3.483560 -0.000000 -0.000000
								CHANNELS 3 Zrotation Yrotation Xrotation
								JOINT LeftFingerBase
								{
									OFFSET 0.000000 0.000000 0.000000
									CHANNELS 3 Zrotation Yrotation Xrotation
									JOINT LeftHandIndex1
									{
										OFFSET 0.715260 -0.000000 -0.000000
										CHANNELS 3 Zrotation Yrotation Xrotation
										End Site
										{
											OFFSET 0.000000 0.000000 0.000000
										}
									}
								}
								JOINT LThumb
								{
									OFFSET 0.000000 0.000000 0.000000
									CHANNELS 3 Zrotation Yrotation Xrotation
									End Site
									{
										OFFSET 0.000000 0.000000 0.000000
									}
								}
							}
						}
					}
				}
				JOINT RightShoulder
				{
					OFFSET 0.000000 0.000000 0.000000
					CHANNELS 3 Zrotation Yrotation Xrotation
					JOINT RightArm
					{
						OFFSET -3.136600 1.374050 -0.404650
						CHANNELS 3 Zrotation Yrotation Xrotation
						JOINT RightForeArm
						{
							OFFSET -5.241900 -0.000000 -0.000000
							CHANNELS 3 Zrotation Yrotation Xrotation
							JOINT RightHand
							{
								OFFSET -3.444170 -0.000000 -0.000000
								CHANNELS 3 Zrotation Yrotation Xrotation
								JOINT RightFingerBase
								{
									OFFSET 0.000000 0.000000 0.000000
									CHANNELS 3 Zrotation Yrotation Xrotation
									JOINT RightHandIndex1
									{
										OFFSET -0.622530 -0.000000 -0.000000
										CHANNELS 3 Zrotation Yrotation Xrotation
										End Site
										{
											OFFSET 0.000000 0.000000 0.000000
										}
									}
								}
								JOINT RThumb
								{
									OFFSET 0.000000 0.000000 0.000000
									CHANNELS 3 Zrotation Yrotation Xrotation
									End Site
									{
										OFFSET 0.000000 0.000000 0.000000
									}
								}
							}
						}
					}
				}
			}
		}
	}
}
MOTION
Frames: 9
Frame Time: 0.008333
6.109939 7.547276 3.711094 -12.630204 19.067612 -22.521775 -1.891275 -4.044222 -4.852816 -8.300988 -8.192378 -53.115058 0.866351 7.638494 19.780189 40.194324 16.305090 160.903298 3.311600 11.183200 32.900200 1.004812 1.556677 -1.100226 -13.109420 11.771113 -71.030340 0.358528 -3.618514 10.600270 -0.508351 -14.690799 -28.496178 -0.149100 -2.488300 6.857200 3.158500 -1.006485 34.278038 3.350262 0.406188 1.764774 -0.792743 0.751220 -2.727627 -3.896518 -5.404258 -19.035933 8.930752 -6.684205 -2.704518 2.094200 -3.232700 0.829600 0.323184 -7.486993 2.151124 31.790509 -25.647563 -86.413445 9.081510 -15.410118 -1.177408 -0.010104 -0.135663 -27.859767 40.936437 -7.724543 -6.530600 -7.125000 0.000000 0.000000 10.139700 20.072400 -6.139600 1.287423 8.787828 5.899863 3.562773 -0.678798 -84.543184 -14.189936 17.808871 -3.672092 -0.058398 3.147691 -41.373099 -16.327469 -34.607875 11.199600 7.125000 0.000000 0.000000 21.221200 -66.979300 -11.444700 
6.063941 7.406625 3.665983 -12.621739 19.050704 -23.290028 -1.873339 -4.081004 -4.931825 -7.684150 -9.369613 -54.358476 0.741334 7.329863 18.866537 40.319807 15.480639 162.293380 3.159500 10.948900 32.107800 1.010184 1.594485 -1.131199 -13.617958 12.022422 -71.052028 0.258009 -4.223056 12.252922 -0.624692 -14.984532 -29.750819 -0.270800 -3.347500 9.247800 2.925123 -1.008215 35.697597 3.320849 0.408614 2.145096 -0.673180 0.757575 -2.615124 -3.850079 -5.317672 -18.181448 9.166757 -6.492996 -4.743672 2.226400 -3.220900 0.116700 0.306333 -7.511767 2.127121 31.142988 -24.387340 -90.585460 8.981786 -15.123317 -1.160504 -0.033842 -0.123983 -29.451036 43.277269 -6.812018 -6.268300 -7.125000 0.000000 0.000000 11.939100 20.911800 -7.043100 1.326481 8.745189 5.927565 3.760067 -0.853944 -89.567971 -13.965502 17.369851 -3.574010 0.133579 3.220788 -40.323880 -18.939124 -34.781333 12.998800 7.125000 0.000000 0.000000 17.997800 -67.868000 -10.018000 
6.019225 7.274839 3.627274 -12.369613 19.038270 -24.120121 -1.873628 -4.119238 -4.986640 -7.007304 -10.869475 -55.064773 0.650121 7.048525 17.969564 40.593157 15.627472 164.086937 3.007500 10.707300 31.298800 1.029795 1.636514 -1.159366 -14.404177 12.362607 -71.246377 0.040528 -5.139949 14.800232 -0.727887 -15.011847 -30.540153 -0.554800 -4.771100 13.257000 2.419419 -0.933524 37.169459 3.246559 0.413583 2.506570 -0.488313 0.764905 -2.556255 -4.066601 -5.184684 -17.287001 9.705764 -6.231947 -6.496202 2.500400 -3.164000 -0.503100 0.289971 -7.567641 2.130105 30.419107 -23.544903 -95.863335 9.160994 -15.295232 -1.224747 -0.050246 -0.114403 -29.876443 44.123672 -6.177900 -5.871500 -7.125000 0.000000 0.000000 12.652900 21.617500 -7.277000 1.362856 8.709268 5.937188 3.920241 -0.726631 -94.514500 -13.794015 17.020752 -3.506928 0.376111 3.282289 -38.463756 -21.758703 -35.023947 15.001200 7.125000 0.000000 0.000000 14.407400 -68.897000 -8.317100 
5.974508 7.153197 3.592506 -11.963594 18.962198 -24.848633 -1.878897 -4.151891 -5.029941 -6.225645 -12.555915 -55.503884 0.601622 6.858316 17.290499 40.937866 16.182049 166.177968 2.848900 10.446300 30.434300 1.075727 1.668196 -1.155921 -15.548481 12.823550 -72.509800 -0.381570 -6.559403 18.844421 -0.565559 -15.802538 -30.370485 -0.627000 -5.067100 14.100000 1.740367 -0.729026 38.356625 3.163000 0.508700 2.927099 -0.249021 0.808177 -2.349318 -4.014097 -5.159984 -16.548626 9.879736 -6.139275 -7.972410 2.618800 -3.183500 -1.042900 0.248351 -7.559970 2.115132 29.621455 -23.383761 -101.466226 9.819703 -16.099611 -1.399848 -0.001723 -0.056629 -29.612044 49.368444 -9.304815 -10.594200 -7.125000 0.000000 0.000000 15.440600 16.276700 -10.901400 1.395402 8.652519 5.953109 4.909055 -1.040438 -94.420122 -13.796422 16.968568 -3.544404 0.404338 3.341599 -40.765872 -24.647640 -35.330559 17.122200 7.125000 0.000000 0.000000 10.503200 -69.991100 -6.299100 
5.930678 7.046626 3.560889 -11.383796 19.021390 -25.421930 -1.888506 -4.177935 -5.077483 -5.668001 -14.326153 -55.841419 0.571370 6.726209 16.748452 41.303720 16.792010 168.511264 3.019800 10.727000 31.364500 1.146092 1.667629 -1.075618 -12.429395 11.827390 -74.563121 -1.249060 -8.259744 24.035285 -0.345401 -13.461287 -25.648020 -0.508200 -4.569600 12.684900 0.866922 -0.445535 39.352456 3.035716 0.608984 3.247409 0.031790 0.847248 -2.241140 -3.873302 -5.163829 -16.028959 9.998402 -6.133842 -8.686507 2.674000 -3.221900 -1.338300 0.212943 -7.565873 2.124474 28.795817 -23.485286 -104.834679 10.309313 -16.740631 -1.551359 0.010246 -0.037647 -30.274146 49.669420 -10.196738 -11.716100 -7.125000 0.000000 0.000000 15.400100 14.898100 -11.347300 1.423267 8.639641 5.973625 5.610220 -0.984210 -95.918757 -13.726900 16.793220 -3.532109 0.492692 3.356832 -40.196909 -25.852967 -35.765368 18.140700 7.125000 0.000000 0.000000 9.133500 -70.754300 -5.627600 
5.882120 6.955912 3.534394 -11.016326 19.026128 -25.942164 -1.906670 -4.206335 -5.117464 -5.053823 -15.915810 -56.327644 0.528619 6.559728 16.127152 41.592028 17.066881 170.698053 3.432700 11.364600 33.519600 1.193207 1.662083 -0.977804 -10.432566 11.399026 -76.322346 -2.219225 -9.785295 29.015292 -0.158664 -10.831138 -20.215329 -1.088100 -6.629300 18.621800 0.072337 -0.254813 40.540228 3.073078 0.611484 3.201001 0.393720 0.831611 -2.244038 -4.521936 -5.024712 -15.776194 10.744220 -5.909021 -8.711827 3.026200 -3.110900 -1.351900 0.207632 -7.639547 2.138131 27.719185 -23.183384 -106.155447 10.452108 -16.824178 -1.614044 -0.001030 -0.014255 -31.337663 50.291276 -11.000842 -12.921800 -7.125000 0.000000 0.000000 15.584000 13.513500 -11.971600 1.456523 8.633053 5.964039 5.593352 -0.199399 -99.229852 -13.524167 16.452566 -3.445106 0.640010 3.319509 -36.660441 -24.953773 -36.219599 17.663100 7.125000 0.000000 0.000000 11.063900 -70.940500 -6.871200 
5.829326 6.883026 3.513316 -10.905144 18.828811 -26.318458 -1.902492 -4.216128 -5.145196 -4.291170 -17.284867 -56.947363 0.500264 6.417934 15.591989 41.740942 17.505626 171.569437 3.503100 11.468100 33.875300 1.204909 1.667150 -0.919181 -9.113793 11.484371 -77.885097 -3.221816 -11.156245 33.758733 -0.082160 -8.348774 -15.703353 -2.047400 -8.964000 25.682900 -0.559192 -0.062703 40.950528 3.135681 0.676563 3.443983 0.862348 0.842218 -2.036377 -5.290178 -4.880191 -15.460349 11.569976 -5.667198 -8.790731 3.448100 -2.989100 -1.385500 0.195370 -7.704604 2.156513 26.715093 -22.939047 -106.953089 10.347754 -16.544835 -1.597817 -0.007021 0.009189 -31.479364 50.375173 -11.692751 -13.773400 -7.125000 0.000000 0.000000 15.451500 12.442300 -12.222900 1.501093 8.582655 5.955265 6.470124 0.214726 -96.458705 -13.471580 16.391308 -3.440580 0.521010 3.285234 -38.443951 -23.805405 -36.263666 16.840400 7.125000 0.000000 0.000000 12.777700 -70.592300 -7.847500 
5.781950 6.828558 3.495981 -10.641859 18.797422 -26.623269 -1.924734 -4.235792 -5.152166 -3.863314 -18.794050 -57.211203 0.481603 6.345041 15.229698 41.914631 17.802455 172.889621 4.062900 12.243600 36.599200 1.242796 1.703103 -0.899096 -8.232431 11.432282 -79.209432 -4.220558 -12.438726 38.427060 0.005569 -7.765199 -13.408536 -1.489000 -7.708800 21.833100 -1.247159 0.150752 41.193708 3.112703 0.728997 3.624525 1.236444 0.840983 -1.827462 -4.740730 -4.920773 -14.521846 11.029345 -5.763918 -9.560466 3.254700 -3.091400 -1.814400 0.159783 -7.723339 2.171611 25.981240 -23.043005 -107.121404 10.003714 -15.950122 -1.508615 -0.012411 0.026685 -31.013559 49.862053 -11.934006 -13.827500 -7.125000 0.000000 0.000000 15.064700 12.215400 -11.967300 1.512098 8.622099 5.974927 7.056039 0.969391 -96.008503 -13.435549 16.290532 -3.405458 0.500342 3.203270 -37.575552 -21.651885 -36.165587 15.266700 7.125000 0.000000 0.000000 15.738000 -69.820300 -9.423100 
5.737234 6.788864 3.480812 -10.492182 18.785852 -26.980752 -1.931174 -4.215427 -5.133618 -3.855750 -18.272203 -56.324811 0.508945 6.351877 15.278723 42.015432 18.705105 172.492654 4.088900 12.277800 36.722000 1.255402 1.711576 -0.880171 -7.534511 11.466529 -80.273245 -5.276947 -13.582024 42.938679 0.060189 -6.819242 -10.582382 -1.356000 -7.371200 20.820000 -1.742276 0.310966 41.433465 3.101670 0.772150 3.746884 1.461500 0.852358 -1.774531 -5.336260 -4.719475 -14.898693 11.888759 -5.508768 -8.579000 3.574300 -2.924700 -1.425500 0.159910 -7.791807 2.201208 25.147806 -22.980550 -104.373730 9.334735 -14.858229 -1.347540 -0.046565 0.044479 -32.510005 49.259023 -12.046539 -13.724700 -7.125000 0.000000 0.000000 14.663400 12.168300 -11.640100 1.546078 8.630597 5.963971 7.167016 2.077443 -97.377315 -13.285920 16.037712 -3.310879 0.554116 3.104914 -34.950901 -19.258767 -35.824892 13.489600 7.125000 0.000000 0.000000 18.591200 -68.775600 -10.736300 
